<?xml version="1.0" encoding="UTF-8"?>
<svg id="Layer_1" data-name="Layer 1" xmlns="http://www.w3.org/2000/svg" viewBox="0 0 1027 1027">
  <defs>
    <style>
      .cls-1 {
        fill: #1e6c93;
      }

      .cls-1, .cls-2 {
        stroke-width: 0px;
      }

      .cls-2 {
        fill: #fff;
      }
    </style>
  </defs>
  <circle class="cls-2" cx="513.5" cy="513.5" r="513.5"/>
  <g>
    <path class="cls-1" d="M899.02,491.51c-6.79-.52-10.31-2.51-12.04-8.42-15.02-51.28-47.85-87.02-96.78-107.5-42.13-17.64-85.08-18.4-127.88-1.81-24.76,9.59-45.49,25-62.64,45.25-.94,1.11-1.9,2.2-2.9,3.25-.24.25-.72.29-2.19-.42,4.66-5.9,8.88-12.23,14.06-17.63,26.18-27.33,58.35-43.33,95.74-48.16,48.76-6.31,93.16,5.63,132.38,35.09,31.35,23.54,52.16,54.55,61.24,93,.5,2.12.6,4.34,1,7.37Z"/>
    <path class="cls-1" d="M874.1,479.12c-6.35-2.95-12.71-5.86-19.03-8.85-6.2-2.94-12.17-6.44-18.57-8.85-11.56-4.35-18.63-13.55-26.01-22.55-2.12-2.58-1.66-4.4,1.14-5.99,7.04-4.01,13.93-8.32,21.16-11.95,1.93-.97,5.93-.93,7.2.38,15.87,16.21,27.23,35.29,35.55,56.21-.48.54-.96,1.07-1.45,1.61Z"/>
    <path class="cls-1" d="M787.61,385.46c12.25,7.16,23.33,13.3,34.04,20.03,5.92,3.72,5.56,5.71-.35,9.12-5.22,3.01-10.48,5.95-15.62,9.07-4.21,2.55-7.86,2.5-12.01-.57-6.66-4.93-13.65-9.44-20.68-13.84-3.54-2.21-4.7-4.38-1.93-7.97,3.04-3.95,5.55-8.37,8.95-11.96,1.88-1.98,5.11-2.68,7.6-3.89Z"/>
    <path class="cls-1" d="M793.52,439.62c-30.35-25.23-64.76-37.23-104.29-31.96-18.94,2.52-36.62,8.97-52.79,20.46,1.89,2.18,3.31,3.83,4.74,5.48-.1.52-.2,1.04-.3,1.55-6.8-.9-13.61-1.81-20.41-2.71l-.52-2.53c20.16-18.12,44.32-27.87,71.32-30,40.22-3.17,74.68,9.83,102.26,39.71Z"/>
    <path class="cls-1" d="M744.51,397.22c-5.06-1.15-10.1-2.42-15.2-3.41-4.36-.84-5.66-3.21-5.22-7.53,1.37-13.66,1.77-14.29,15.05-12.3,9.02,1.35,17.95,3.33,26.88,5.23,4.52.96,5.21,3.57,2.39,7.2-.89,1.15-1.7,2.36-2.53,3.56-9.47,13.53-7.32,11.69-21.37,7.26Z"/>
    <path class="cls-1" d="M713.26,388.51c-1.29.68-3.19,2.45-5.23,2.63-8.24.74-16.52,1.03-24.78,1.4-6.55.29-5.79-5.4-7.11-9.14-1.31-3.7,1.12-5.37,4.39-5.93,8.77-1.51,17.52-3.24,26.35-4.28,7.61-.9,8.33.18,7.45,7.74-.24,2.06-.57,4.1-1.07,7.58Z"/>
    <path class="cls-1" d="M638.16,405.5c-1.07-1.45-2.97-3.08-3.46-5.07-.29-1.16,1.32-3.49,2.67-4.24,7.6-4.27,15.29-8.43,23.2-12.1,1.41-.65,5.45.82,5.72,1.94.75,3.05,1.22,8.66-.12,9.32-8.17,4.01-16.88,6.94-25.42,10.18-.54.2-1.22,0-2.58-.03Z"/>
    <path class="cls-1" d="M604.26,428.87c2.36-3.39,4.47-7,7.14-10.12,3.22-3.78,6.73-7.37,10.52-10.56,1.12-.94,3.94-.88,5.33-.1.91.51,1.47,4.04.79,4.65-7.01,6.23-14.31,12.13-21.53,18.13-.75-.66-1.5-1.32-2.25-1.99Z"/>
  </g>
  <g>
    <path class="cls-1" d="M306.45,437.96c-4.98,9.96-11.17,18.67-18.55,26.13-7.39,7.47-15.69,13.4-24.9,17.81-9.21,4.41-18.72,6.6-28.51,6.6h-24.9c-9.13,0-17.6-.86-25.4-2.59-7.81-1.72-14.53-4.64-20.17-8.76-5.64-4.11-10.08-9.71-13.32-16.8-3.24-7.08-4.86-15.98-4.86-26.71,0-2.3.08-4.69.25-7.18.16-2.49.41-5.07.75-7.75,1.33-10.72,4.4-21.06,9.21-31.02,4.81-9.95,10.79-18.71,17.92-26.28,7.14-7.56,14.98-13.64,23.53-18.23,8.55-4.6,17.22-6.89,26.02-6.89h32.87c20.08,0,35.31,3.98,45.69,11.92,10.37,7.95,15.56,21.11,15.56,39.49,0,5.74-.5,11.87-1.49,18.38-1.5,11.3-4.73,21.93-9.71,31.88ZM193.41,416.71v1.72c0,3.45.58,7.04,1.74,10.77,1.16,3.74,2.74,7.13,4.73,10.2s4.31,5.55,6.97,7.47c2.65,1.92,5.48,2.87,8.47,2.87h16.43c1.66,0,4.02-.81,7.1-2.44,3.07-1.63,6.26-3.78,9.58-6.46,3.32-2.68,6.47-5.7,9.46-9.05,2.99-3.35,5.23-6.65,6.72-9.91,1.49-2.68,2.4-4.78,2.74-6.32l1-2.87c.33-1.91.5-2.77.5-2.58.16-1.53.29-3.11.37-4.74.08-1.62.13-3.3.13-5.03,0-3.06-.25-6.13-.75-9.19-.5-3.06-1.49-5.79-2.99-8.18-1.5-2.39-3.53-4.31-6.1-5.74-2.57-1.44-5.94-2.15-10.08-2.15h-20.17c-2.66,0-5.52.82-8.59,2.44-3.07,1.63-6.1,3.78-9.09,6.46-2.99,2.68-5.77,5.7-8.34,9.05-2.57,3.35-4.61,6.66-6.1,9.91-.83,2.3-1.58,4.45-2.24,6.46-.67,2.01-1.08,3.78-1.24,5.31-.17.19-.25.86-.25,2.01Z"/>
    <path class="cls-1" d="M415.01,440.26v-1.72c0-1.53-.25-3.11-.75-4.74-.5-1.62-1.41-2.44-2.74-2.44h-49.8c-4.98,0-9.46-1.39-13.45-4.16-3.98-2.77-7.43-6.32-10.33-10.63-2.91-4.31-5.1-9.05-6.6-14.22-1.5-5.17-2.24-10.24-2.24-15.22,0-4.6,1.16-9.81,3.49-15.65,2.32-5.84,5.31-11.39,8.96-16.66,3.65-5.26,7.8-9.67,12.45-13.21,4.65-3.54,9.3-5.31,13.94-5.31h126.98c-3.82,6.51-8.18,13.02-13.07,19.53-4.9,6.51-10.33,13.02-16.31,19.53h-82.16c-1.83,0-3.4,1.44-4.73,4.31-1.33,2.87-1.99,5.17-1.99,6.89v1.44c0,.19.33.62.99,1.29.66.67,1.16,1.2,1.5,1.58.66.77,1.62,1.49,2.86,2.15,1.24.67,1.95,1,2.12,1h47.31c5.31,0,9.87,1.49,13.69,4.45,3.82,2.97,6.93,6.7,9.34,11.2,2.4,4.5,4.19,9.33,5.35,14.5,1.16,5.17,1.74,9.96,1.74,14.36v1.72c0,4.98-1,10.29-2.99,15.94-1.99,5.65-4.61,10.87-7.84,15.65-3.24,4.79-6.97,8.76-11.2,11.92-4.23,3.16-8.59,4.74-13.07,4.74h-126.98c.83-1.91,2.53-4.98,5.1-9.19,2.57-4.21,5.31-8.47,8.22-12.78,2.9-4.31,5.6-8.13,8.09-11.49,2.49-3.35,3.98-5.03,4.48-5.03h84.65c2.49,0,3.94-.86,4.36-2.58.41-1.72.62-3.54.62-5.46v-1.72Z"/>
    <path class="cls-1" d="M536.51,375.06h-47.06v-.29c.16-.76,1.37-2.87,3.61-6.32,2.24-3.45,4.89-7.27,7.97-11.49,3.07-4.21,6.22-8.28,9.46-12.21,3.24-3.92,6.01-6.75,8.34-8.47h124.74c-1.16,2.68-3.11,6.18-5.85,10.48-2.74,4.31-5.65,8.57-8.71,12.78-3.07,4.22-6.06,7.85-8.96,10.92-2.91,3.06-5.02,4.59-6.35,4.59h-29.38l-35.85,113.44h-47.81l35.85-113.44Z"/>
  </g>
  <g>
    <path class="cls-1" d="M886.35,514.55c-4.33.99-8.62,2.42-13.01,2.89-37.84,4.06-74.4-3.62-110.87-12.2-50.24-11.83-100.1-25.82-150.86-34.75-62.44-10.98-125.13-10.3-186.45,10.01-35.79,11.86-71.93,22.67-107.89,34-2.74.86-5.34,2.17-7.77,4.42,101.84-6.7,205.25,5.86,307.73-29.13-3.3,5.5-4.54,8.74-6.75,11.07-16.15,16.97-37.19,25.73-59.23,29.75-36.34,6.62-73.07,13.3-109.86,14.89-66.85,2.9-133.86,1.84-200.79,2.9-39.21.62-78.69-1.15-117.31,9.87,8.63-10.55,20.55-15.79,32.93-19.93,32.85-11,67.08-14.36,101.35-16.17,22.59-1.19,43.2-6.32,64.55-14.66,50.85-19.87,102.44-38.85,155.21-52.48,53.91-13.93,109.87-11.68,165.27-5.93,61.92,6.43,121.13,23.64,179.63,44.12,20.75,7.26,42.29,12.27,63.46,18.3.22,1.01.43,2.02.65,3.03Z"/>
    <path class="cls-1" d="M565.73,546.12c24.01-13.48,49.44-20.3,75.62-24.62,47.39-7.82,94.77-4.93,142.31-1.1,33.79,2.72,67.79,2.87,101.7,4.18,1.61.06,3.22.28,8.11.71-6.07,4.08-9.55,7.04-13.53,8.99-26.66,13.07-55.5,16.36-84.45,15.68-47.88-1.12-95.69-4.79-143.57-6.02-27.07-.69-54.22,1.36-81.33,2.17-1.62.05-3.24,0-4.86,0Z"/>
    <path class="cls-1" d="M902.88,541.07c-.35,6.42.32,12.39-1.35,17.61-.92,2.88-5.5,5.77-8.89,6.48-17.56,3.68-34.6.14-52.98-4.53,21.86-6.76,42.11-13.03,63.21-19.56Z"/>
  </g>
  <path class="cls-1" d="M210.7,654.16v-1.26c0-1.12-.18-2.27-.54-3.46-.36-1.18-1.03-1.78-2-1.78h-36.33c-3.63,0-6.9-1.01-9.81-3.04-2.91-2.02-5.42-4.61-7.54-7.75-2.12-3.14-3.72-6.6-4.81-10.37-1.09-3.77-1.64-7.47-1.64-11.1,0-3.35.85-7.16,2.54-11.42,1.69-4.26,3.87-8.31,6.54-12.15,2.66-3.84,5.69-7.05,9.08-9.64,3.39-2.58,6.78-3.88,10.17-3.88h92.65c-2.79,4.75-5.97,9.5-9.54,14.25-3.57,4.75-7.54,9.5-11.9,14.25h-59.95c-1.33,0-2.48,1.05-3.45,3.14-.97,2.1-1.45,3.77-1.45,5.03v1.05c0,.14.24.45.73.94.48.49.85.87,1.09,1.15.48.56,1.18,1.08,2.09,1.57.91.49,1.42.73,1.55.73h34.52c3.87,0,7.2,1.08,9.99,3.25,2.78,2.17,5.05,4.89,6.81,8.17,1.75,3.28,3.06,6.81,3.9,10.58.85,3.77,1.27,7.27,1.27,10.48v1.26c0,3.63-.73,7.51-2.18,11.63-1.45,4.12-3.36,7.93-5.72,11.42-2.36,3.49-5.09,6.39-8.17,8.69-3.09,2.31-6.27,3.46-9.54,3.46h-92.65c.6-1.4,1.84-3.63,3.72-6.71,1.88-3.07,3.87-6.18,5.99-9.32,2.12-3.14,4.09-5.93,5.9-8.38,1.82-2.44,2.91-3.67,3.27-3.67h61.76c1.82,0,2.88-.63,3.18-1.88.3-1.26.45-2.58.45-3.98v-1.26Z"/>
  <path class="cls-1" d="M382.91,578.31c-.85,1.96-2.27,4.51-4.27,7.65-2,3.14-4.12,6.25-6.36,9.32-2.24,3.08-4.42,5.73-6.54,7.96-2.12,2.23-3.67,3.35-4.63,3.35h-55.95l-10.35,32.9,17.26-19.28h41.96l-25.98,28.29h-36.15l-4,12.57h69.58c-.12.28-.43.87-.91,1.78-.48.91-.97,1.85-1.45,2.83-.48.98-.97,1.88-1.45,2.72-.49.84-.79,1.33-.91,1.47-1.09,1.68-2.57,3.63-4.45,5.87-1.88,2.24-3.72,4.37-5.54,6.39-1.82,2.03-3.42,3.74-4.81,5.13-1.39,1.4-2.15,2.1-2.27,2.1h-91.37l35.06-111.05h103.55Z"/>
  <path class="cls-1" d="M392.9,578.31h81.02c4.36,0,7.87,1.05,10.54,3.14,2.66,2.1,4.69,4.75,6.08,7.96,1.39,3.21,2.3,6.71,2.72,10.48.42,3.77.64,7.27.64,10.48,0,7.12-1.52,12.99-4.54,17.6-3.03,4.61-6.81,8.28-11.35,11-4.54,2.72-9.57,4.68-15.08,5.87-5.51,1.19-10.69,1.99-15.53,2.41l35.61,42.11h-38.88l-37.42-39.81-2,1.68-11.99,38.13h-34.88l35.06-111.05ZM458.66,610.37c0-1.12-.18-2.06-.54-2.83-.36-.77-1.27-1.15-2.72-1.15h-36.51l-10.35,32.69,15.99-18.65h29.07c1.82,0,3.12-.94,3.91-2.83.79-1.89,1.18-3.53,1.18-4.92v-2.31Z"/>
  <path class="cls-1" d="M593.27,578.31h37.42l-64.49,98.06c-.61.84-1.45,1.96-2.54,3.35-1.09,1.4-2.27,2.83-3.54,4.29-1.27,1.47-2.57,2.72-3.91,3.77-1.33,1.05-2.42,1.57-3.27,1.57h-29.97c-1.33,0-2.48-.77-3.45-2.3-.97-1.54-1.82-3.42-2.54-5.66-.73-2.23-1.33-4.57-1.82-7.02-.49-2.44-.91-4.5-1.27-6.18l-11.26-89.89h31.61l8.72,74.8,50.32-74.8Z"/>
  <path class="cls-1" d="M639.41,578.31h34.88l-35.06,111.05h-34.88l35.06-111.05Z"/>
  <path class="cls-1" d="M667.75,638.02c0-6.71,1.27-13.62,3.81-20.74,2.54-7.12,5.99-13.55,10.35-19.28,4.36-5.73,9.38-10.44,15.08-14.14,5.69-3.7,11.75-5.55,18.17-5.55h75.03c-3.51,5.31-7.06,10.3-10.63,14.98-3.57,4.68-7.48,9.11-11.72,13.3h-47.23c-1.58,0-3.24.6-5,1.78-1.76,1.19-3.45,2.76-5.09,4.71-1.64,1.96-3.12,4.16-4.45,6.6-1.33,2.45-2.36,4.86-3.09,7.23-.97,3.63-1.45,6.49-1.45,8.59,0,2.66.6,5.48,1.82,8.49,1.21,3.01,2.75,5.76,4.63,8.28,1.88,2.51,3.93,4.61,6.18,6.29,2.24,1.68,4.39,2.51,6.45,2.51h43.42c-2.79,4.75-5.94,9.6-9.45,14.56-3.51,4.96-7.57,9.53-12.17,13.72h-14.53c-7.51,0-14.84-.77-21.98-2.3-7.15-1.54-13.57-4.22-19.26-8.07-5.69-3.84-10.26-9.04-13.71-15.61-3.45-6.56-5.18-14.88-5.18-24.93v-.42Z"/>
  <path class="cls-1" d="M903,578.31c-.85,1.96-2.27,4.51-4.27,7.65-2,3.14-4.12,6.25-6.36,9.32-2.24,3.08-4.42,5.73-6.54,7.96-2.12,2.23-3.67,3.35-4.63,3.35h-55.95l-10.35,32.9,17.26-19.28h41.96l-25.98,28.29h-36.15l-4,12.57h69.58c-.12.28-.43.87-.91,1.78-.48.91-.97,1.85-1.45,2.83-.48.98-.97,1.88-1.45,2.72-.49.84-.79,1.33-.91,1.47-1.09,1.68-2.57,3.63-4.45,5.87-1.88,2.24-3.72,4.37-5.54,6.39-1.82,2.03-3.42,3.74-4.81,5.13-1.39,1.4-2.15,2.1-2.27,2.1h-91.37l35.06-111.05h103.55Z"/>
</svg>